<mxfile host="65bd71144e">
    <diagram id="3Kqu5hoDcEIuTMSiTPuF" name="Page-1">
        <mxGraphModel dx="228" dy="312" grid="1" gridSize="10" guides="1" tooltips="1" connect="1" arrows="1" fold="1" page="1" pageScale="1" pageWidth="850" pageHeight="1100" background="none" math="0" shadow="0">
            <root>
                <mxCell id="0"/>
                <mxCell id="1" parent="0"/>
                <mxCell id="3" value="" style="html=1;verticalLabelPosition=bottom;align=center;labelBackgroundColor=#000000;verticalAlign=top;strokeWidth=2;strokeColor=#0080F0;shadow=0;dashed=0;shape=mxgraph.ios7.icons.folder;fontSize=16;fillColor=none;" parent="1" vertex="1">
                    <mxGeometry x="130" y="605" width="30" height="19.5" as="geometry"/>
                </mxCell>
                <mxCell id="4" value="" style="endArrow=none;html=1;fontSize=16;entryX=0.596;entryY=1.071;entryDx=0;entryDy=0;entryPerimeter=0;strokeColor=#999999;" parent="1" target="3" edge="1">
                    <mxGeometry width="50" height="50" relative="1" as="geometry">
                        <mxPoint x="148" y="655" as="sourcePoint"/>
                        <mxPoint x="190" y="595" as="targetPoint"/>
                    </mxGeometry>
                </mxCell>
                <mxCell id="5" value="" style="endArrow=none;html=1;fontSize=16;strokeColor=#999999;" parent="1" edge="1">
                    <mxGeometry width="50" height="50" relative="1" as="geometry">
                        <mxPoint x="150" y="640" as="sourcePoint"/>
                        <mxPoint x="249.75" y="654.55" as="targetPoint"/>
                        <Array as="points">
                            <mxPoint x="250" y="639.55"/>
                        </Array>
                    </mxGeometry>
                </mxCell>
                <mxCell id="6" value="" style="endArrow=none;html=1;fontSize=16;strokeColor=#999999;" parent="1" edge="1">
                    <mxGeometry width="50" height="50" relative="1" as="geometry">
                        <mxPoint x="230" y="639.55" as="sourcePoint"/>
                        <mxPoint x="299.75" y="654.55" as="targetPoint"/>
                        <Array as="points">
                            <mxPoint x="300" y="639.55"/>
                        </Array>
                    </mxGeometry>
                </mxCell>
                <mxCell id="7" value="" style="html=1;verticalLabelPosition=bottom;align=center;labelBackgroundColor=none;verticalAlign=top;strokeWidth=2;strokeColor=#0080F0;shadow=0;dashed=0;shape=mxgraph.ios7.icons.document;fontSize=16;fillColor=none;fontColor=#000000;" parent="1" vertex="1">
                    <mxGeometry x="290" y="654.55" width="21" height="30" as="geometry"/>
                </mxCell>
                <mxCell id="8" value=".git" style="html=1;verticalLabelPosition=bottom;align=center;labelBackgroundColor=none;verticalAlign=top;strokeWidth=2;strokeColor=#0080F0;shadow=0;dashed=0;shape=mxgraph.ios7.icons.data;fillColor=none;fontColor=#000000;" parent="1" vertex="1">
                    <mxGeometry x="136" y="655.45" width="24" height="29.099999999999998" as="geometry"/>
                </mxCell>
                <mxCell id="10" value="data" style="html=1;verticalLabelPosition=bottom;align=center;labelBackgroundColor=none;verticalAlign=top;strokeWidth=2;strokeColor=#0080F0;shadow=0;dashed=0;shape=mxgraph.ios7.icons.folder;fontSize=12;fillColor=none;fontColor=#000000;" parent="1" vertex="1">
                    <mxGeometry x="235" y="659.8" width="30" height="19.5" as="geometry"/>
                </mxCell>
                <mxCell id="33" value="" style="endArrow=none;html=1;fontSize=16;strokeColor=#999999;" parent="1" edge="1">
                    <mxGeometry width="50" height="50" relative="1" as="geometry">
                        <mxPoint x="150" y="640" as="sourcePoint"/>
                        <mxPoint x="200.25" y="655" as="targetPoint"/>
                        <Array as="points">
                            <mxPoint x="200.5" y="640"/>
                        </Array>
                    </mxGeometry>
                </mxCell>
                <mxCell id="35" value=".dvc" style="html=1;verticalLabelPosition=bottom;align=center;labelBackgroundColor=none;verticalAlign=top;strokeWidth=2;strokeColor=#0080F0;shadow=0;dashed=0;shape=mxgraph.ios7.icons.data;fillColor=none;fontColor=#000000;" parent="1" vertex="1">
                    <mxGeometry x="188" y="654.5500000000001" width="24" height="29.099999999999998" as="geometry"/>
                </mxCell>
                <mxCell id="36" value="" style="endArrow=none;html=1;fontSize=16;entryX=0.596;entryY=1.071;entryDx=0;entryDy=0;entryPerimeter=0;strokeColor=#999999;" parent="1" edge="1">
                    <mxGeometry width="50" height="50" relative="1" as="geometry">
                        <mxPoint x="250.12" y="729.12" as="sourcePoint"/>
                        <mxPoint x="250" y="700.0045" as="targetPoint"/>
                    </mxGeometry>
                </mxCell>
                <mxCell id="43" value="data1.csv" style="html=1;verticalLabelPosition=bottom;align=center;labelBackgroundColor=none;verticalAlign=top;strokeWidth=2;strokeColor=#0080F0;shadow=0;dashed=0;shape=mxgraph.ios7.icons.document;fontSize=12;fillColor=none;fontColor=#000000;" parent="1" vertex="1">
                    <mxGeometry x="239.5" y="728.67" width="21" height="30" as="geometry"/>
                </mxCell>
                <mxCell id="46" value="" style="rounded=1;whiteSpace=wrap;html=1;fontSize=16;strokeColor=#999999;dashed=1;fillColor=none;" parent="1" vertex="1">
                    <mxGeometry x="110" y="598" width="250" height="202" as="geometry"/>
                </mxCell>
                <mxCell id="47" value="" style="html=1;verticalLabelPosition=bottom;align=center;labelBackgroundColor=#000000;verticalAlign=top;strokeWidth=2;strokeColor=#0080F0;shadow=0;dashed=0;shape=mxgraph.ios7.icons.folder;fontSize=16;fillColor=none;" parent="1" vertex="1">
                    <mxGeometry x="466" y="605.67" width="30" height="19.5" as="geometry"/>
                </mxCell>
                <mxCell id="48" value="" style="endArrow=none;html=1;fontSize=16;entryX=0.596;entryY=1.071;entryDx=0;entryDy=0;entryPerimeter=0;strokeColor=#999999;" parent="1" target="47" edge="1">
                    <mxGeometry width="50" height="50" relative="1" as="geometry">
                        <mxPoint x="484" y="655.67" as="sourcePoint"/>
                        <mxPoint x="526" y="595.67" as="targetPoint"/>
                    </mxGeometry>
                </mxCell>
                <mxCell id="49" value="" style="endArrow=none;html=1;fontSize=16;strokeColor=#999999;" parent="1" edge="1">
                    <mxGeometry width="50" height="50" relative="1" as="geometry">
                        <mxPoint x="486" y="640.67" as="sourcePoint"/>
                        <mxPoint x="585.75" y="655.2199999999999" as="targetPoint"/>
                        <Array as="points">
                            <mxPoint x="586" y="640.2199999999999"/>
                        </Array>
                    </mxGeometry>
                </mxCell>
                <mxCell id="50" value="" style="endArrow=none;html=1;fontSize=16;strokeColor=#999999;" parent="1" edge="1">
                    <mxGeometry width="50" height="50" relative="1" as="geometry">
                        <mxPoint x="566" y="640.2199999999999" as="sourcePoint"/>
                        <mxPoint x="635.75" y="655.2199999999999" as="targetPoint"/>
                        <Array as="points">
                            <mxPoint x="636" y="640.2199999999999"/>
                        </Array>
                    </mxGeometry>
                </mxCell>
                <mxCell id="51" value="" style="html=1;verticalLabelPosition=bottom;align=center;labelBackgroundColor=none;verticalAlign=top;strokeWidth=2;strokeColor=#0080F0;shadow=0;dashed=0;shape=mxgraph.ios7.icons.document;fontSize=16;fillColor=none;fontColor=#000000;" parent="1" vertex="1">
                    <mxGeometry x="626" y="655.2199999999999" width="21" height="30" as="geometry"/>
                </mxCell>
                <mxCell id="52" value=".git" style="html=1;verticalLabelPosition=bottom;align=center;labelBackgroundColor=none;verticalAlign=top;strokeWidth=2;strokeColor=#0080F0;shadow=0;dashed=0;shape=mxgraph.ios7.icons.data;fillColor=none;fontColor=#000000;" parent="1" vertex="1">
                    <mxGeometry x="472" y="656.12" width="24" height="29.099999999999998" as="geometry"/>
                </mxCell>
                <mxCell id="53" value="data" style="html=1;verticalLabelPosition=bottom;align=center;labelBackgroundColor=none;verticalAlign=top;strokeWidth=2;strokeColor=#0080F0;shadow=0;dashed=0;shape=mxgraph.ios7.icons.folder;fontSize=12;fillColor=none;fontColor=#000000;" parent="1" vertex="1">
                    <mxGeometry x="571" y="660.4699999999999" width="30" height="19.5" as="geometry"/>
                </mxCell>
                <mxCell id="55" value="" style="endArrow=none;html=1;fontSize=16;strokeColor=#999999;" parent="1" edge="1">
                    <mxGeometry width="50" height="50" relative="1" as="geometry">
                        <mxPoint x="486" y="640.67" as="sourcePoint"/>
                        <mxPoint x="536.25" y="655.67" as="targetPoint"/>
                        <Array as="points">
                            <mxPoint x="536.5" y="640.67"/>
                        </Array>
                    </mxGeometry>
                </mxCell>
                <mxCell id="56" value=".dvc" style="html=1;verticalLabelPosition=bottom;align=center;labelBackgroundColor=none;verticalAlign=top;strokeWidth=2;strokeColor=#0080F0;shadow=0;dashed=0;shape=mxgraph.ios7.icons.data;fillColor=none;fontColor=#000000;" parent="1" vertex="1">
                    <mxGeometry x="524" y="655.22" width="24" height="29.099999999999998" as="geometry"/>
                </mxCell>
                <mxCell id="57" value="" style="endArrow=none;html=1;fontSize=16;entryX=0.596;entryY=1.071;entryDx=0;entryDy=0;entryPerimeter=0;strokeColor=#999999;" parent="1" edge="1">
                    <mxGeometry width="50" height="50" relative="1" as="geometry">
                        <mxPoint x="586.1199999999999" y="729.7899999999998" as="sourcePoint"/>
                        <mxPoint x="586" y="700.6745" as="targetPoint"/>
                    </mxGeometry>
                </mxCell>
                <mxCell id="58" value="" style="endArrow=none;html=1;fontSize=16;strokeColor=#999999;" parent="1" edge="1">
                    <mxGeometry width="50" height="50" relative="1" as="geometry">
                        <mxPoint x="586" y="714.67" as="sourcePoint"/>
                        <mxPoint x="668.25" y="729.34" as="targetPoint"/>
                        <Array as="points">
                            <mxPoint x="668.5" y="714.3399999999999"/>
                        </Array>
                    </mxGeometry>
                </mxCell>
                <mxCell id="59" value="" style="endArrow=none;html=1;fontSize=16;strokeColor=#999999;" parent="1" edge="1">
                    <mxGeometry width="50" height="50" relative="1" as="geometry">
                        <mxPoint x="646" y="714.67" as="sourcePoint"/>
                        <mxPoint x="737.8699999999999" y="729.34" as="targetPoint"/>
                        <Array as="points">
                            <mxPoint x="738.12" y="714.3399999999999"/>
                        </Array>
                    </mxGeometry>
                </mxCell>
                <mxCell id="60" value=".gitignore" style="html=1;verticalLabelPosition=bottom;align=center;labelBackgroundColor=none;verticalAlign=top;strokeWidth=2;strokeColor=#0080F0;shadow=0;dashed=0;shape=mxgraph.ios7.icons.document;fontSize=12;fillColor=none;fontColor=#000000;" parent="1" vertex="1">
                    <mxGeometry x="575.5" y="729.3399999999999" width="21" height="30" as="geometry"/>
                </mxCell>
                <mxCell id="61" value="data1.csv.dvc" style="html=1;verticalLabelPosition=bottom;align=center;labelBackgroundColor=none;verticalAlign=top;strokeWidth=2;strokeColor=#0080F0;shadow=0;dashed=0;shape=mxgraph.ios7.icons.document;fontSize=12;fillColor=none;fontColor=#000000;" parent="1" vertex="1">
                    <mxGeometry x="655" y="729.3399999999999" width="21" height="30" as="geometry"/>
                </mxCell>
                <mxCell id="62" value="data1.csv" style="html=1;verticalLabelPosition=bottom;align=center;labelBackgroundColor=none;verticalAlign=top;strokeWidth=2;shadow=0;dashed=0;shape=mxgraph.ios7.icons.document;fontSize=12;fillColor=none;strokeColor=#B3B3B3;fontColor=#000000;" parent="1" vertex="1">
                    <mxGeometry x="728" y="729.3399999999999" width="21" height="30" as="geometry"/>
                </mxCell>
                <mxCell id="63" value="" style="rounded=1;whiteSpace=wrap;html=1;fontSize=16;strokeColor=#999999;dashed=1;fillColor=none;" parent="1" vertex="1">
                    <mxGeometry x="450" y="598" width="260" height="200" as="geometry"/>
                </mxCell>
                <mxCell id="72" value="" style="endArrow=none;html=1;fontSize=16;strokeColor=#999999;" edge="1" parent="1">
                    <mxGeometry width="50" height="50" relative="1" as="geometry">
                        <mxPoint x="538.1200000000001" y="802.7900000000001" as="sourcePoint"/>
                        <mxPoint x="538" y="710.67" as="targetPoint"/>
                    </mxGeometry>
                </mxCell>
                <mxCell id="73" value="et9pc01" style="html=1;verticalLabelPosition=bottom;align=center;labelBackgroundColor=none;verticalAlign=top;strokeWidth=2;strokeColor=#B3B3B3;shadow=0;dashed=0;shape=mxgraph.ios7.icons.document;fontSize=12;fillColor=none;fontColor=#000000;" vertex="1" parent="1">
                    <mxGeometry x="528.5" y="863.67" width="21" height="30" as="geometry"/>
                </mxCell>
                <mxCell id="76" value="cache" style="html=1;verticalLabelPosition=bottom;align=center;labelBackgroundColor=none;verticalAlign=top;strokeWidth=2;strokeColor=#B3B3B3;shadow=0;dashed=0;shape=mxgraph.ios7.icons.folder;fontSize=12;fillColor=none;fontColor=#000000;" vertex="1" parent="1">
                    <mxGeometry x="524" y="802.3399999999999" width="30" height="19.5" as="geometry"/>
                </mxCell>
                <mxCell id="77" value="" style="endArrow=none;html=1;fontSize=16;strokeColor=#999999;" edge="1" parent="1">
                    <mxGeometry width="50" height="50" relative="1" as="geometry">
                        <mxPoint x="538.9800000000001" y="863.6700000000001" as="sourcePoint"/>
                        <mxPoint x="538.86" y="844.55" as="targetPoint"/>
                    </mxGeometry>
                </mxCell>
                <mxCell id="78" value="" style="endArrow=classic;html=1;exitX=1.103;exitY=0.565;exitDx=0;exitDy=0;exitPerimeter=0;entryX=0.571;entryY=1.711;entryDx=0;entryDy=0;entryPerimeter=0;strokeColor=#000000;dashed=1;" edge="1" parent="1" source="73" target="62">
                    <mxGeometry width="50" height="50" relative="1" as="geometry">
                        <mxPoint x="640" y="780.67" as="sourcePoint"/>
                        <mxPoint x="830" y="807.67" as="targetPoint"/>
                        <Array as="points">
                            <mxPoint x="740" y="880.67"/>
                        </Array>
                    </mxGeometry>
                </mxCell>
                <mxCell id="79" value="symbolic link" style="text;html=1;strokeColor=none;fillColor=none;align=center;verticalAlign=middle;whiteSpace=wrap;rounded=0;fontColor=#000000;" vertex="1" parent="1">
                    <mxGeometry x="601" y="880" width="94" height="20" as="geometry"/>
                </mxCell>
                <mxCell id="81" value="&lt;span style=&quot;font-size: 12px&quot;&gt;md5: et9pc01&lt;br&gt;size: 10000&lt;br&gt;path: data1.csv&lt;br style=&quot;font-size: 12px&quot;&gt;&lt;/span&gt;" style="rounded=1;whiteSpace=wrap;html=1;fillColor=none;strokeColor=#000000;align=left;fontColor=#000000;fontSize=12;spacingLeft=3;" vertex="1" parent="1">
                    <mxGeometry x="616" y="810.6700000000001" width="99" height="50" as="geometry"/>
                </mxCell>
                <mxCell id="82" value="" style="endArrow=none;html=1;fontSize=20;fontColor=#000000;strokeColor=#000000;strokeWidth=1;rounded=0;" edge="1" parent="1">
                    <mxGeometry width="50" height="50" relative="1" as="geometry">
                        <mxPoint x="667" y="780" as="sourcePoint"/>
                        <mxPoint x="667" y="810.6701915794508" as="targetPoint"/>
                    </mxGeometry>
                </mxCell>
                <mxCell id="83" value="" style="shape=flexArrow;endArrow=classic;html=1;endWidth=35;endSize=9.37;width=25;strokeWidth=2;strokeColor=#000000;" edge="1" parent="1">
                    <mxGeometry width="50" height="50" relative="1" as="geometry">
                        <mxPoint x="370" y="697.6700000000001" as="sourcePoint"/>
                        <mxPoint x="440" y="697.6700000000001" as="targetPoint"/>
                    </mxGeometry>
                </mxCell>
                <mxCell id="85" value="dvc add" style="text;html=1;strokeColor=none;fillColor=none;align=center;verticalAlign=middle;whiteSpace=wrap;rounded=0;fontSize=12;fontColor=#000000;" vertex="1" parent="1">
                    <mxGeometry x="370" y="729.34" width="60" height="30" as="geometry"/>
                </mxCell>
            </root>
        </mxGraphModel>
    </diagram>
</mxfile>